# xmcd
# 
# Track frame offsets:
#     150
#     12283
#     28493
#     46278
#     67279
#     81420
#     99754
#     110992
#     128117
#     144004
#     160859
#     178434
# 
# Disc length: 2573
# 
# Revision: 0
# Processed by: cddbd v1.5.2PL0 Copyright (c) Steve Scherf et al.
# Submitted via: fre:ac v1.0.31
# 
DISCID=ab0a0b0c
DTITLE=Big Little Lions - A Little Frayed, A Little Torn
DYEAR=2015
DGENRE=Folk
TTITLE0=This Road With You
TTITLE1=Watered Down
TTITLE2=The Time is Now
TTITLE3=Hiding Place
TTITLE4=Fire Me Up
TTITLE5=I'll Find You
TTITLE6=Everytime
TTITLE7=Stories
TTITLE8=They Know My Name
TTITLE9=Closer
TTITLE10=Another Life
TTITLE11=Save Yourself
EXTD=
EXTT0=
EXTT1=
EXTT2=
EXTT3=
EXTT4=
EXTT5=
EXTT6=
EXTT7=
EXTT8=
EXTT9=
EXTT10=
EXTT11=
PLAYORDER=
